<svg xmlns="http://www.w3.org/2000/svg" viewBox="0 0 64 64" width="64" height="64">
  <defs>
    <linearGradient id="evWm" x1="0" y1="0" x2="0" y2="1">
      <stop offset="0" stop-color="#6a4aa0"/><stop offset="1" stop-color="#3a285a"/>
    </linearGradient>
  </defs>
  <!-- 斗篷身体 -->
  <path d="M32 18c-9 0-15 8-16 36h32c-1-28-7-36-16-36z" fill="url(#evWm)" stroke="#241640" stroke-width="2" stroke-linejoin="round"/>
  <!-- 兜帽阴影 -->
  <path d="M22 26c2-6 5-10 10-10s8 4 10 10c-3 3-6 4-10 4s-7-1-10-4z" fill="#1c1030" stroke="#241640" stroke-width="1.6"/>
  <!-- 神秘眼光 -->
  <circle cx="28" cy="24" r="1.6" fill="#ffd24a"/><circle cx="36" cy="24" r="1.6" fill="#ffd24a"/>
  <!-- 围巾 -->
  <path d="M22 40c6 3 14 3 20 0" fill="none" stroke="#c0392b" stroke-width="2.4" stroke-linecap="round"/>
  <!-- 钱袋 -->
  <circle cx="44" cy="46" r="6" fill="#c9912f" stroke="#7a5a18" stroke-width="1.6"/>
  <path d="M44 43v6M42 45h4a1.5 1.5 0 0 1 0 3h-3" fill="none" stroke="#5a4414" stroke-width="1.4"/>
</svg>
