<svg xmlns="http://www.w3.org/2000/svg" viewBox="0 0 64 64" width="64" height="64">
  <defs>
    <linearGradient id="bkpM" x1="0" y1="0" x2="0" y2="1">
      <stop offset="0" stop-color="#cfd8e0"/><stop offset=".5" stop-color="#8d9aa6"/><stop offset="1" stop-color="#4a5660"/>
    </linearGradient>
    <radialGradient id="bkpRune" cx="50%" cy="50%" r="55%">
      <stop offset="0" stop-color="#bfeaff"/><stop offset="1" stop-color="#2c7fb8"/>
    </radialGradient>
  </defs>
  <!-- 塔盾盾面（更高大） -->
  <path d="M32 5l22 6v18c0 15-10 24-22 30-12-6-22-15-22-30V11z" fill="url(#bkpM)" stroke="#2c3640" stroke-width="2.5" stroke-linejoin="round"/>
  <path d="M32 5l22 6v18c0 15-10 24-22 30z" fill="#fff" fill-opacity=".15"/>
  <!-- 钢边镶饰 -->
  <path d="M32 11l16 4v14c0 11-7 18-16 23-9-5-16-12-16-23V15z" fill="none" stroke="#dfe7ee" stroke-width="1.2" stroke-opacity=".5"/>
  <!-- 蓝符文核心 -->
  <circle cx="32" cy="30" r="9" fill="url(#bkpRune)" stroke="#1f5d86" stroke-width="2"/>
  <path d="M32 24v12M27 30h10" stroke="#eaf6ff" stroke-width="1.6" stroke-linecap="round"/>
  <!-- 铆钉 -->
  <g fill="#39434d">
    <circle cx="32" cy="13" r="2"/><circle cx="19" cy="22" r="2"/>
    <circle cx="45" cy="22" r="2"/><circle cx="23" cy="46" r="2"/><circle cx="41" cy="46" r="2"/>
  </g>
</svg>
