<svg xmlns="http://www.w3.org/2000/svg" viewBox="0 0 64 64" width="64" height="64">
  <defs>
    <radialGradient id="ndBs" cx="50%" cy="42%" r="60%">
      <stop offset="0" stop-color="#7a2a2a"/><stop offset="1" stop-color="#3a0e0e"/>
    </radialGradient>
  </defs>
  <!-- 威压晕 -->
  <circle cx="32" cy="32" r="24" fill="#c0392b" fill-opacity=".18"/>
  <!-- 龙头剪影 -->
  <path d="M14 30c0-8 6-14 14-14 4 0 6 1 9 3l9-5-3 8c3 3 5 7 5 12 0 4-2 7-4 9l3 7-9-4c-3 2-6 3-10 3-9 0-14-6-14-14z"
        fill="url(#ndBs)" stroke="#1c0606" stroke-width="2" stroke-linejoin="round"/>
  <!-- 角 -->
  <path d="M28 16l-4-9 8 6zM37 19l3-9 4 8z" fill="#5a4a3c" stroke="#1c0606" stroke-width="1.4" stroke-linejoin="round"/>
  <!-- 眼 -->
  <path d="M24 30l8-2-2 5z" fill="#ffcf3c"/>
  <circle cx="27" cy="30" r="1.4" fill="#1c0606"/>
  <!-- 獠牙 -->
  <g fill="#e8ddc4" stroke="#5a4a2c" stroke-width="1"><path d="M22 38l3 0-1.5 6z"/><path d="M28 40l3 0-1.5 6z"/></g>
</svg>
