<svg xmlns="http://www.w3.org/2000/svg" viewBox="0 0 64 64" width="64" height="64">
  <defs>
    <linearGradient id="ndEl" x1="0" y1="0" x2="0" y2="1">
      <stop offset="0" stop-color="#fdfaf2"/><stop offset="1" stop-color="#c4b896"/>
    </linearGradient>
  </defs>
  <!-- 王冠 -->
  <path d="M18 18l5 7 9-9 9 9 5-7v8H18z" fill="#e0b84a" stroke="#7a5a18" stroke-width="1.6" stroke-linejoin="round"/>
  <circle cx="18" cy="16" r="2.4" fill="#e0b84a" stroke="#7a5a18" stroke-width="1.2"/>
  <circle cx="46" cy="16" r="2.4" fill="#e0b84a" stroke="#7a5a18" stroke-width="1.2"/>
  <circle cx="32" cy="9" r="2.4" fill="#e0b84a" stroke="#7a5a18" stroke-width="1.2"/>
  <!-- 骷髅 -->
  <path d="M32 28c-8 0-13 5-13 12 0 5 3 8 5 9v5a2 2 0 0 0 2 2h12a2 2 0 0 0 2-2v-5c2-1 5-4 5-9 0-7-5-12-13-12z"
        fill="url(#ndEl)" stroke="#5a4a2c" stroke-width="1.8" stroke-linejoin="round"/>
  <circle cx="27" cy="42" r="3" fill="#2c1c10"/><circle cx="37" cy="42" r="3" fill="#2c1c10"/>
  <path d="M32 46l-2 4h4z" fill="#5a4a2c"/>
</svg>
