<svg xmlns="http://www.w3.org/2000/svg" viewBox="0 0 64 64" width="64" height="64">
  <defs>
    <radialGradient id="ndHl" cx="50%" cy="62%" r="55%">
      <stop offset="0" stop-color="#fff2b0"/><stop offset=".5" stop-color="#ff9d3c"/><stop offset="1" stop-color="#d13c1c"/>
    </radialGradient>
  </defs>
  <!-- 柴火 -->
  <g stroke="#3a2810" stroke-width="2" stroke-linecap="round">
    <line x1="16" y1="52" x2="44" y2="44" stroke="#6e4a24"/>
    <line x1="20" y1="44" x2="48" y2="52" stroke="#5e3e1c"/>
  </g>
  <!-- 火焰 -->
  <path d="M32 10c5 8 11 13 11 22a11 11 0 0 1-22 0c0-5 3-8 5-12 1 3 3 4 4 3-1-5 0-9 2-13z"
        fill="url(#ndHl)" stroke="#9a2c10" stroke-width="2" stroke-linejoin="round"/>
  <!-- 内焰 -->
  <path d="M32 28c2 3 4 6 4 9a4 4 0 0 1-8 0c0-3 2-6 4-9z" fill="#ffe08a"/>
</svg>
