<svg xmlns="http://www.w3.org/2000/svg" viewBox="0 0 64 64" width="64" height="64">
  <defs>
    <linearGradient id="ch2L" x1="0" y1="1" x2="0" y2="0">
      <stop offset="0" stop-color="#fff2b0"/><stop offset=".5" stop-color="#ff7a45"/><stop offset="1" stop-color="#9a2c10"/>
    </linearGradient>
  </defs>
  <!-- 拱门 -->
  <path d="M12 56V30a20 20 0 0 1 40 0v26h-9V30a11 11 0 0 0-22 0v26z" fill="#3a2c20" stroke="#1c1208" stroke-width="2" stroke-linejoin="round"/>
  <!-- 熔岩 -->
  <path d="M21 56V30a11 11 0 0 1 22 0v26z" fill="url(#ch2L)"/>
  <!-- 火舌 -->
  <path d="M32 30c2 4 5 7 5 11a5 5 0 0 1-10 0c0-3 2-5 3-7 1 2 2 2 2 1z" fill="#ffe08a" stroke="#d13c1c" stroke-width="1.2" stroke-linejoin="round"/>
  <!-- 砖纹 -->
  <g stroke="#1c1208" stroke-width="1.4" opacity=".5"><path d="M12 42h6M46 42h6M12 30h6M46 30h6"/></g>
</svg>
