<svg xmlns="http://www.w3.org/2000/svg" viewBox="0 0 64 64" width="64" height="64">
  <defs>
    <radialGradient id="pBg" cx="50%" cy="42%" r="60%">
      <stop offset="0" stop-color="#1c2a14"/><stop offset="1" stop-color="#0a0f08"/>
    </radialGradient>
    <linearGradient id="pSkull" x1="0" y1="0" x2="0" y2="1">
      <stop offset="0" stop-color="#bdf08a"/><stop offset="1" stop-color="#5f9a3a"/>
    </linearGradient>
  </defs>
  <circle cx="32" cy="32" r="30" fill="url(#pBg)" stroke="#7ed957" stroke-width="2" stroke-opacity=".5"/>
  <circle cx="32" cy="30" r="20" fill="#7ed95722"/>
  <!-- 毒骷髅 -->
  <g stroke="#2c4417" stroke-width="1.5" stroke-linejoin="round">
    <path d="M32 14c-9 0-15 6-15 15 0 6 3 9 6 11v5a3 3 0 0 0 3 3h12a3 3 0 0 0 3-3v-5c3-2 6-5 6-11 0-9-6-15-15-15z" fill="url(#pSkull)"/>
  </g>
  <g fill="#1a2c0c">
    <circle cx="25" cy="29" r="4.5"/><circle cx="39" cy="29" r="4.5"/>
    <path d="M30 38l2-4 2 4z"/>
    <rect x="26" y="44" width="2.5" height="4" rx="1"/>
    <rect x="31" y="44" width="2.5" height="4" rx="1"/>
    <rect x="36" y="44" width="2.5" height="4" rx="1"/>
  </g>
  <!-- 毒气泡 -->
  <circle cx="46" cy="18" r="3" fill="#aef07a" fill-opacity=".8"/>
  <circle cx="51" cy="24" r="2" fill="#aef07a" fill-opacity=".6"/>
</svg>
