<svg xmlns="http://www.w3.org/2000/svg" viewBox="0 0 96 96" width="96" height="96">
  <defs>
    <linearGradient id="batB" x1="0" y1="0" x2="0" y2="1">
      <stop offset="0" stop-color="#5a4a66"/><stop offset="1" stop-color="#241830"/>
    </linearGradient>
    <linearGradient id="batW" x1="0" y1="0" x2="0" y2="1">
      <stop offset="0" stop-color="#3e3050"/><stop offset="1" stop-color="#1a1226"/>
    </linearGradient>
  </defs>
  <ellipse cx="48" cy="80" rx="22" ry="5" fill="#000" fill-opacity=".3"/>
  <!-- 翅膀 -->
  <path d="M40 46C28 36 16 38 8 50c8-2 11 2 12 8 6-6 10-4 14-2z" fill="url(#batW)" stroke="#160e22" stroke-width="2" stroke-linejoin="round"/>
  <path d="M56 46C68 36 80 38 88 50c-8-2-11 2-12 8-6-6-10-4-14-2z" fill="url(#batW)" stroke="#160e22" stroke-width="2" stroke-linejoin="round"/>
  <!-- 身体 -->
  <ellipse cx="48" cy="52" rx="14" ry="16" fill="url(#batB)" stroke="#160e22" stroke-width="2.5"/>
  <!-- 耳朵 -->
  <path d="M38 40l-4-14 12 8z" fill="url(#batB)" stroke="#160e22" stroke-width="2" stroke-linejoin="round"/>
  <path d="M58 40l4-14-12 8z" fill="url(#batB)" stroke="#160e22" stroke-width="2" stroke-linejoin="round"/>
  <!-- 眼睛 + 尖牙 -->
  <circle cx="43" cy="50" r="3.5" fill="#ff5a3c"/>
  <circle cx="53" cy="50" r="3.5" fill="#ff5a3c"/>
  <path d="M44 60l2 4 2-4M48 60l2 4 2-4" fill="#fff" stroke="#fff" stroke-width="1"/>
</svg>
