<svg xmlns="http://www.w3.org/2000/svg" viewBox="0 0 96 96" width="96" height="96">
  <defs>
    <radialGradient id="dlB" cx="45%" cy="35%" r="75%">
      <stop offset="0" stop-color="#8a2e22"/><stop offset=".7" stop-color="#5a1810"/><stop offset="1" stop-color="#2a0a06"/>
    </radialGradient>
    <radialGradient id="dlGlow" cx="50%" cy="50%" r="50%">
      <stop offset="0" stop-color="#ff5a2c" stop-opacity=".5"/><stop offset="1" stop-color="#ff5a2c" stop-opacity="0"/>
    </radialGradient>
  </defs>
  <ellipse cx="48" cy="86" rx="30" ry="6" fill="#000" fill-opacity=".4"/>
  <!-- Boss 血色威压光 -->
  <circle cx="48" cy="46" r="40" fill="url(#dlGlow)"/>
  <!-- 巨角 -->
  <path d="M28 38C18 30 12 18 14 8c6 6 12 8 16 18z" fill="#3a2418" stroke="#1a0e06" stroke-width="2" stroke-linejoin="round"/>
  <path d="M68 38C78 30 84 18 82 8c-6 6-12 8-16 18z" fill="#3a2418" stroke="#1a0e06" stroke-width="2" stroke-linejoin="round"/>
  <!-- 龙头 -->
  <path d="M24 50c0-18 11-28 24-28s24 10 24 28c0 8-3 12-6 16-2 3-5 5-5 9 0 2-2 3-4 3-2 0-3-1-4-2-3 1-7 1-10 0-1 1-2 2-4 2-2 0-4-1-4-3 0-4-3-6-5-9-3-4-6-8-6-16z" fill="url(#dlB)" stroke="#1a0e06" stroke-width="3"/>
  <!-- 鳞甲脊 -->
  <path d="M40 30l3-6 5 6 5-6 3 6" fill="none" stroke="#c43a28" stroke-width="2" stroke-linejoin="round"/>
  <!-- 眉脊 -->
  <path d="M30 46c6-5 14-4 17 0M66 46c-6-5-14-4-17 0" fill="none" stroke="#1a0e06" stroke-width="2.5" stroke-linecap="round"/>
  <!-- 烈焰眼 -->
  <path d="M34 48l10 1-2 6-9-2z" fill="#ffd23c"/>
  <path d="M62 48l-10 1 2 6 9-2z" fill="#ffd23c"/>
  <circle cx="40" cy="50" r="2" fill="#3a0c04"/><circle cx="56" cy="50" r="2" fill="#3a0c04"/>
  <!-- 獠牙巨口 -->
  <path d="M34 64c6 7 22 7 28 0z" fill="#2a0a06"/>
  <path d="M37 64l2 7 3-6M59 64l-2 7-3-6" fill="#f0d8b0" stroke="#f0d8b0" stroke-width="1"/>
  <path d="M45 65l1 5 2-5M50 65l1 5 2-5" fill="#f0d8b0" stroke="#f0d8b0" stroke-width="1"/>
  <!-- 鼻孔喷烟 -->
  <ellipse cx="44" cy="58" rx="2" ry="1.5" fill="#1a0e06"/><ellipse cx="52" cy="58" rx="2" ry="1.5" fill="#1a0e06"/>
</svg>
