<svg xmlns="http://www.w3.org/2000/svg" viewBox="0 0 96 96" width="96" height="96">
  <defs>
    <radialGradient id="fwB" cx="45%" cy="38%" r="70%">
      <stop offset="0" stop-color="#d6f3ff"/><stop offset=".6" stop-color="#7ec8ee"/><stop offset="1" stop-color="#3a82b0"/>
    </radialGradient>
  </defs>
  <ellipse cx="48" cy="84" rx="20" ry="5" fill="#000" fill-opacity=".25"/>
  <circle cx="48" cy="48" r="30" fill="#58c8f01a"/>
  <!-- 冰晶核心（菱形结晶体） -->
  <path d="M48 22l16 14-6 24-20 0-6-24z" fill="url(#fwB)" stroke="#3a82b0" stroke-width="2.5" stroke-linejoin="round"/>
  <path d="M48 22l16 14-6 24z" fill="#ffffff" fill-opacity=".25"/>
  <!-- 棱线 -->
  <g stroke="#3a82b0" stroke-width="1.5" stroke-opacity=".7">
    <line x1="48" y1="22" x2="48" y2="60"/>
    <line x1="32" y1="36" x2="58" y2="60"/>
    <line x1="64" y1="36" x2="38" y2="60"/>
  </g>
  <!-- 眼 -->
  <ellipse cx="42" cy="44" rx="3" ry="4.5" fill="#0e3a55"/>
  <ellipse cx="54" cy="44" rx="3" ry="4.5" fill="#0e3a55"/>
  <!-- 飘浮碎冰 -->
  <path d="M22 30l3-3 3 3-3 3z" fill="#d6f3ff"/>
  <path d="M70 56l3-3 3 3-3 3z" fill="#d6f3ff"/>
  <path d="M68 26l2.5-2.5 2.5 2.5-2.5 2.5z" fill="#aee2f7"/>
</svg>
