<svg xmlns="http://www.w3.org/2000/svg" viewBox="0 0 96 96" width="96" height="96">
  <defs>
    <radialGradient id="gbB" cx="45%" cy="35%" r="70%">
      <stop offset="0" stop-color="#8fbf5a"/><stop offset="1" stop-color="#4a7a28"/>
    </radialGradient>
  </defs>
  <ellipse cx="48" cy="84" rx="22" ry="5" fill="#000" fill-opacity=".3"/>
  <!-- 头 -->
  <path d="M30 50c0-14 8-22 18-22s18 8 18 22c0 12-8 20-18 20s-18-8-18-20z" fill="url(#gbB)" stroke="#2c4a16" stroke-width="2.5"/>
  <!-- 大尖耳 -->
  <path d="M30 48c-10-4-16-2-20-10 6 2 8-2 12-2z" fill="url(#gbB)" stroke="#2c4a16" stroke-width="2" stroke-linejoin="round"/>
  <path d="M66 48c10-4 16-2 20-10-6 2-8-2-12-2z" fill="url(#gbB)" stroke="#2c4a16" stroke-width="2" stroke-linejoin="round"/>
  <!-- 眉骨阴影 -->
  <path d="M34 44c4-3 9-3 12-1M62 44c-4-3-9-3-12-1" fill="none" stroke="#2c4a16" stroke-width="2" stroke-linecap="round"/>
  <!-- 眼睛 -->
  <ellipse cx="41" cy="50" rx="4.5" ry="4" fill="#ffd23c"/>
  <ellipse cx="55" cy="50" rx="4.5" ry="4" fill="#ffd23c"/>
  <circle cx="41" cy="50" r="2" fill="#1a2c0c"/><circle cx="55" cy="50" r="2" fill="#1a2c0c"/>
  <!-- 龇牙 -->
  <path d="M38 60c4 5 16 5 20 0z" fill="#2c1a0c"/>
  <path d="M40 60l2 5 2-5M52 60l2 5 2-5" fill="#fff" stroke="#fff" stroke-width="1"/>
  <!-- 鼻 -->
  <path d="M46 52l2 5 2-5" fill="none" stroke="#2c4a16" stroke-width="1.5" stroke-linecap="round"/>
</svg>
