<svg xmlns="http://www.w3.org/2000/svg" viewBox="0 0 96 96" width="96" height="96">
  <defs>
    <radialGradient id="impB" cx="45%" cy="38%" r="70%">
      <stop offset="0" stop-color="#ff7a4a"/><stop offset="1" stop-color="#a82414"/>
    </radialGradient>
  </defs>
  <ellipse cx="48" cy="84" rx="22" ry="5" fill="#000" fill-opacity=".3"/>
  <!-- 火焰光晕 -->
  <circle cx="48" cy="50" r="30" fill="#ff7a2c22"/>
  <!-- 头 -->
  <path d="M30 52c0-14 8-22 18-22s18 8 18 22c0 12-8 18-18 18s-18-6-18-18z" fill="url(#impB)" stroke="#6a1408" stroke-width="2.5"/>
  <!-- 弯角 -->
  <path d="M34 34c-4-8-3-14 0-18 1 6 4 8 6 12z" fill="#3a1208" stroke="#6a1408" stroke-width="1.5" stroke-linejoin="round"/>
  <path d="M62 34c4-8 3-14 0-18-1 6-4 8-6 12z" fill="#3a1208" stroke="#6a1408" stroke-width="1.5" stroke-linejoin="round"/>
  <!-- 眼 -->
  <path d="M36 48l8 2-2 5z" fill="#ffe23c"/>
  <path d="M60 48l-8 2 2 5z" fill="#ffe23c"/>
  <circle cx="41" cy="50" r="1.6" fill="#6a1408"/><circle cx="55" cy="50" r="1.6" fill="#6a1408"/>
  <!-- 咧嘴 -->
  <path d="M38 60c4 6 16 6 20 0-3 2-17 2-20 0z" fill="#3a0c04"/>
  <path d="M41 61l1 4 2-4M52 61l1 4 2-4" fill="#ffe6c4" stroke="#ffe6c4" stroke-width="1"/>
  <!-- 火苗头顶 -->
  <path d="M48 30c2-5 0-9-3-12 0 4-3 6-3 9 0 2 2 3 6 3z" fill="#ffd23c"/>
</svg>
