<svg xmlns="http://www.w3.org/2000/svg" viewBox="0 0 96 96" width="96" height="96">
  <defs>
    <radialGradient id="slBody" cx="42%" cy="35%" r="70%">
      <stop offset="0" stop-color="#a8e86a"/><stop offset=".6" stop-color="#6fb83c"/><stop offset="1" stop-color="#3f7a22"/>
    </radialGradient>
  </defs>
  <ellipse cx="48" cy="82" rx="30" ry="6" fill="#000" fill-opacity=".35"/>
  <!-- 史莱姆身体 -->
  <path d="M20 56c0-18 12-30 28-30s28 12 28 30c0 9-4 16-4 20 0 2-2 3-5 3-2 0-3-2-4-2s-3 2-6 2-4-2-6-2-3 2-6 2-4-2-6-2-2 2-5 2c-3 0-5-1-5-3 0-4-4-11-4-20z" fill="url(#slBody)" stroke="#2c5417" stroke-width="2.5"/>
  <!-- 高光 -->
  <ellipse cx="38" cy="44" rx="9" ry="12" fill="#ffffff" fill-opacity=".4"/>
  <!-- 眼睛 -->
  <g>
    <ellipse cx="40" cy="58" rx="6" ry="7" fill="#fff"/>
    <ellipse cx="58" cy="58" rx="6" ry="7" fill="#fff"/>
    <circle cx="41" cy="60" r="3" fill="#1a2c0c"/>
    <circle cx="59" cy="60" r="3" fill="#1a2c0c"/>
  </g>
  <path d="M44 70c2 2 6 2 8 0" fill="none" stroke="#1a2c0c" stroke-width="2" stroke-linecap="round"/>
</svg>
