<svg xmlns="http://www.w3.org/2000/svg" viewBox="0 0 96 96" width="96" height="96">
  <defs>
    <radialGradient id="spB" cx="45%" cy="40%" r="65%">
      <stop offset="0" stop-color="#6a4a2c"/><stop offset="1" stop-color="#241408"/>
    </radialGradient>
  </defs>
  <ellipse cx="48" cy="82" rx="24" ry="5" fill="#000" fill-opacity=".3"/>
  <!-- 腿 -->
  <g stroke="#1c1006" stroke-width="3.5" stroke-linecap="round" fill="none">
    <path d="M36 50C24 44 18 48 12 40"/>
    <path d="M36 56C22 54 16 60 10 56"/>
    <path d="M36 62C24 66 18 70 14 68"/>
    <path d="M60 50C72 44 78 48 84 40"/>
    <path d="M60 56C74 54 80 60 86 56"/>
    <path d="M60 62C72 66 78 70 82 68"/>
  </g>
  <!-- 身体 -->
  <ellipse cx="48" cy="62" rx="17" ry="14" fill="url(#spB)" stroke="#1c1006" stroke-width="2.5"/>
  <!-- 头胸 -->
  <circle cx="48" cy="46" r="11" fill="url(#spB)" stroke="#1c1006" stroke-width="2.5"/>
  <!-- 毒纹 -->
  <path d="M42 58l6 8 6-8" fill="none" stroke="#7ed957" stroke-width="2" stroke-linecap="round"/>
  <!-- 多眼 -->
  <g fill="#ff5a3c">
    <circle cx="43" cy="43" r="2.5"/><circle cx="53" cy="43" r="2.5"/>
    <circle cx="45" cy="48" r="1.8"/><circle cx="51" cy="48" r="1.8"/>
  </g>
</svg>
