<svg xmlns="http://www.w3.org/2000/svg" viewBox="0 0 64 64" width="64" height="64">
  <defs>
    <radialGradient id="crs" cx="50%" cy="42%" r="58%">
      <stop offset="0" stop-color="#c89af0"/><stop offset="1" stop-color="#5e2a8a"/>
    </radialGradient>
  </defs>
  <!-- 诅咒灵光 -->
  <circle cx="32" cy="30" r="18" fill="#7a4ab0" fill-opacity=".25"/>
  <!-- 骷髅头 -->
  <path d="M32 12c-9 0-15 6-15 15 0 6 3 9 6 11v6a3 3 0 0 0 3 3h12a3 3 0 0 0 3-3v-6c3-2 6-5 6-11 0-9-6-15-15-15z"
        fill="url(#crs)" stroke="#341f40" stroke-width="2" stroke-linejoin="round"/>
  <!-- 眼窝 -->
  <circle cx="26" cy="28" r="3.5" fill="#1c0e2a"/>
  <circle cx="38" cy="28" r="3.5" fill="#1c0e2a"/>
  <circle cx="26" cy="28" r="1.4" fill="#d89aff"/>
  <circle cx="38" cy="28" r="1.4" fill="#d89aff"/>
  <!-- 鼻 -->
  <path d="M32 33l-2 4h4z" fill="#341f40"/>
  <!-- 牙 -->
  <g stroke="#341f40" stroke-width="1.4"><path d="M28 46v4M32 46v4M36 46v4"/></g>
</svg>
